<?xml version="1.0" encoding="utf-8"?>
<!-- Generator: Adobe Illustrator 25.3.1, SVG Export Plug-In . SVG Version: 6.00 Build 0)  -->
<svg version="1.1" id="Layer_1" focusable="false" xmlns="http://www.w3.org/2000/svg" xmlns:xlink="http://www.w3.org/1999/xlink"
	 x="0px" y="0px" viewBox="0 0 448 392" style="enable-background:new 0 0 448 392;" xml:space="preserve">
<path d="M37.5,386.4c4.2,3.6,9.7,5.6,15.6,5.6c5.9,0,11.4-2,15.6-5.6l155.4-136l155.4,136c8.6,7.5,22.5,7.5,31.1,0l31.1-27.2
	c8.6-7.5,8.6-19.7,0-27.2L286.2,196L441.6,60c8.6-7.5,8.6-19.7,0-27.2L410.5,5.6c-8.6-7.5-22.5-7.5-31.1,0L224,141.6L68.6,5.6
	C64.3,1.9,58.7,0,53.1,0c-5.6,0-11.3,1.9-15.6,5.6L6.4,32.8c-8.6,7.5-8.6,19.7,0,27.2l155.4,136L6.4,332c-8.6,7.5-8.6,19.7,0,27.2
	L37.5,386.4z"/>
</svg>
