<?xml version="1.0" encoding="utf-8"?>
<!-- Generator: Adobe Illustrator 25.3.1, SVG Export Plug-In . SVG Version: 6.00 Build 0)  -->
<svg version="1.1" id="Layer_1" focusable="false" xmlns="http://www.w3.org/2000/svg" xmlns:xlink="http://www.w3.org/1999/xlink"
	 x="0px" y="0px" viewBox="0 0 576 512" style="enable-background:new 0 0 576 512;" xml:space="preserve">
<style type="text/css">
	.st0{fill:#FFFFFF;}
</style>
<path class="st0" d="M570.7,236.3L512,184.4V48c0-8.8-7.2-16-16-16h-64c-8.8,0-16,7.2-16,16v51.7L314.8,10.3
	C308.5,4.6,296.5,0,288,0s-20.5,4.6-26.7,10.3l-256,226c-3.2,3.2-5,7.4-5.3,11.9c0.2,3.9,1.6,7.7,4.1,10.7l21.4,23.8
	c3.3,3,7.5,4.9,12,5.3c3.9-0.4,7.6-1.8,10.7-4.1l15.9-14V480c0,17.7,14.3,32,32,32H480c17.7,0,32-14.3,32-32V269.9l15.9,14
	c3.1,2.3,6.8,3.7,10.7,4.1c4.4-0.5,8.6-2.3,11.9-5.3l21.4-23.8c2.3-3.1,3.7-6.8,4.1-10.7C575.5,243.8,573.7,239.6,570.7,236.3z
	 M288,176c35.3,0,64,28.7,64,64s-28.7,64-64,64s-64-28.7-64-64S252.7,176,288,176z M400,448H176c-8.8,0-16-7.2-16-16
	c0-53,43-96,96-96h64c53,0,96,43,96,96C416,440.8,408.8,448,400,448z"/>
</svg>
