<?xml version="1.0" encoding="utf-8"?>
<!-- Generator: Adobe Illustrator 25.3.1, SVG Export Plug-In . SVG Version: 6.00 Build 0)  -->
<svg version="1.1" id="Layer_1" xmlns="http://www.w3.org/2000/svg" xmlns:xlink="http://www.w3.org/1999/xlink" x="0px" y="0px"
	 viewBox="0 0 51.7 51.7" style="enable-background:new 0 0 51.7 51.7;" xml:space="preserve">
<style type="text/css">
	.st0{fill:#9090FC;}
	.st1{fill:#FFFFFF;}
	.st2{opacity:0.67;}
	.st3{opacity:0.8;fill:#FFFFFF;enable-background:new    ;}
</style>
<g id="Layer_2_1_">
	<g id="Layer_1-2">
		<circle class="st0" cx="25.8" cy="25.8" r="25.8"/>
		<path class="st1" d="M39.3,27.7c0.6-0.9,0.8-1.9,0.8-3c-0.1-2.8-2.3-5-5.1-5.1h-2.2c0.4-0.9,0.5-1.8,0.5-2.8
			c0-4.3-2.2-6.2-5.7-6.2c-3.7,0-3.5,5.6-4.3,6.5c-1.4,1.4-3,4-4.1,5h-5.9c-1,0-1.9,0.8-1.9,1.9c0,0,0,0,0,0v14.3
			c0,1,0.9,1.9,1.9,1.9c0,0,0,0,0,0h3.8c0.9,0,1.6-0.6,1.9-1.4c2.6,0.1,4.5,2.4,10.6,2.4H31c4.6,0,6.7-2.3,6.7-5.7
			c0.8-1.2,1.2-2.6,1-4C39.4,30.3,39.6,28.9,39.3,27.7z M35.6,30.9c0.6,1.2,0.3,2.7-0.8,3.4c0.5,2.9-1,3.9-3.2,3.9h-2.3
			c-4.3,0-7-2.2-10.2-2.2V24.9h0.6c1.7,0,4-4.2,5.6-5.8s1.1-4.5,2.2-5.6c2.8,0,2.8,2,2.8,3.4c0,2.3-1.7,3.4-1.7,5.6H35
			c1.2,0,2.2,1,2.2,2.3c0,1.1-0.8,2.2-1.3,2.2C36.9,28.1,36.7,29.8,35.6,30.9L35.6,30.9z M16.8,36.3c0,0.8-0.6,1.4-1.4,1.4
			c-0.8,0-1.4-0.6-1.4-1.4s0.6-1.4,1.4-1.4C16.1,34.9,16.8,35.5,16.8,36.3L16.8,36.3z"/>
		<g class="st2">
			<path class="st3" d="M35,22.4h-6.2c0-2.2,1.7-3.3,1.7-5.6c0-1.4,0-3.4-2.8-3.4c-1.1,1.1-0.6,3.9-2.2,5.6s-4,5.8-5.6,5.8h-0.6V36
				c3.2,0,6,2.2,10.2,2.2h2.3c2.1,0,3.6-1,3.2-3.9c1.1-0.8,1.5-2.2,0.8-3.4l0,0c1.1-1,1.3-2.7,0.3-3.9c0.6,0,1.3-1.1,1.3-2.2
				C37.3,23.5,36.3,22.5,35,22.4z"/>
			<path class="st3" d="M16.8,36.3c0-0.8-0.6-1.4-1.4-1.4c-0.8,0-1.4,0.6-1.4,1.4c0,0.8,0.6,1.4,1.4,1.4c0,0,0,0,0,0
				C16.1,37.8,16.8,37.1,16.8,36.3z"/>
		</g>
	</g>
</g>
</svg>
